<svg width="733" height="733" viewBox="0 0 733 733" fill="none" xmlns="http://www.w3.org/2000/svg">
<path d="M113.882 491.234L113.881 491.245C113.687 494.755 115.092 498.118 117.65 500.51C120.188 502.883 123.615 504.088 127.072 503.912C130.44 503.742 133.659 502.279 135.927 499.752L265.722 376.559L323.829 428.014C346.958 448.52 382.712 448.481 405.849 428.018L405.851 428.016L464.212 376.331L594.251 499.759C596.524 502.29 599.746 503.744 603.106 503.914C606.563 504.089 609.99 502.885 612.528 500.511C615.086 498.119 616.491 494.757 616.297 491.247L616.296 491.235C616.098 487.81 614.405 484.714 611.753 482.614L482.799 359.988L611.779 245.966C611.781 245.964 611.784 245.962 611.786 245.96C616.995 241.4 617.292 233.592 612.376 228.685C607.632 223.939 599.815 223.717 594.782 228.131L594.774 228.138L594.766 228.145L388.817 410.443C388.816 410.443 388.816 410.444 388.815 410.444C374.892 422.756 355.007 422.756 341.117 410.446L135.458 228.178C135.451 228.172 135.445 228.166 135.438 228.16C133.021 225.982 129.827 224.832 126.586 224.893C121.568 224.932 116.873 227.869 114.972 232.608C113.047 237.405 114.529 242.728 118.427 245.996L247.134 360.215L118.424 482.613C115.773 484.713 114.08 487.809 113.882 491.234ZM93.156 135.382C60.0532 135.382 32.6162 160.62 32.6162 192.288V536.319C32.6162 567.994 60.0595 593.225 93.156 593.225H637.027C670.13 593.225 697.567 567.988 697.567 536.319V192.288C697.567 160.614 670.124 135.382 637.027 135.382H93.156ZM93.156 159.448H637.027C657.098 159.448 672.463 174.24 672.463 192.288V536.319C672.463 554.367 657.098 569.16 637.027 569.16H93.156C73.0853 569.16 57.7199 554.367 57.7199 536.319V192.288C57.7199 174.24 73.0853 159.448 93.156 159.448Z" fill="#FFBB0D" stroke="#FFBB0D" stroke-width="9.10892"/>
</svg>
