<svg width="33" height="51" viewBox="0 0 33 51" fill="none" xmlns="http://www.w3.org/2000/svg">
<path d="M15.2898 49.2037L15.2897 49.2038L15.2925 49.2113C15.4307 49.5857 15.7912 49.8361 16.1974 49.8361C16.6121 49.8361 16.9499 49.5787 17.0976 49.2231L17.1017 49.2134L17.1051 49.2034C17.712 47.416 18.9105 45.2603 20.388 42.8209C20.9396 41.91 21.5306 40.959 22.1417 39.9757C23.1577 38.3406 24.2293 36.6161 25.268 34.8386L25.2681 34.8383C28.5968 29.1305 31.7113 22.7079 31.7113 16.0997C31.7113 7.79424 24.7349 1.07792 16.1974 1.07792C7.65979 1.07792 0.683388 7.79424 0.683388 16.0997C0.683388 22.7079 3.79794 29.1305 7.1266 34.8383C8.17553 36.637 9.25769 38.3798 10.2825 40.0303C10.883 40.9975 11.4639 41.933 12.0068 42.8293C13.4844 45.2689 14.6828 47.4219 15.2898 49.2037ZM23.6089 33.9088L23.6085 33.9095C22.627 35.5934 21.6256 37.2121 20.6638 38.7668C20.1887 39.5347 19.7233 40.2871 19.2747 41.0239C18.0746 42.9951 16.9967 44.8529 16.1974 46.5758C15.3981 44.8529 14.3201 42.9951 13.1201 41.0239C12.6715 40.2871 12.2061 39.5347 11.731 38.7668C10.7692 37.2121 9.76776 35.5934 8.78619 33.9095L8.78605 33.9092C5.49703 28.2782 2.60122 22.1413 2.60122 16.0997C2.60122 8.86422 8.66588 2.9761 16.1974 2.9761C23.7289 2.9761 29.7935 8.86422 29.7935 16.0997C29.7935 22.1415 26.909 28.2785 23.6089 33.9088ZM16.1974 8.11427C11.6732 8.11427 7.97813 11.6804 7.97813 16.0997C7.97813 20.5205 11.6862 24.0626 16.1974 24.0626C20.7088 24.0626 24.4166 20.5089 24.4166 16.0997C24.4166 11.6804 20.7215 8.11427 16.1974 8.11427ZM16.1974 10.0125C19.7029 10.0125 22.5103 12.7494 22.5103 16.0997C22.5103 19.449 19.7155 22.1644 16.1974 22.1644C12.6792 22.1644 9.88449 19.449 9.88449 16.0997C9.88449 12.749 12.6807 10.0125 16.1974 10.0125Z" fill="#FFBB0D" stroke="#FFBB0D" stroke-width="0.633224"/>
</svg>
