<svg width="217" height="217" viewBox="0 0 217 217" fill="none" xmlns="http://www.w3.org/2000/svg">
<path d="M212.26 171.404L212.259 171.988C210.105 169.598 203.775 162.63 196.946 155.461C193.187 151.514 189.272 147.503 185.817 144.161C182.375 140.83 179.354 138.128 177.391 136.828C172.302 133.458 166.596 133.998 162.18 135.367C157.759 136.739 154.521 138.973 154.254 139.158L154.244 139.165L154.234 139.172C154.22 139.183 154.205 139.194 154.19 139.205C154.163 139.226 154.136 139.247 154.107 139.268C154.064 139.3 154.02 139.333 153.976 139.366L153.966 139.374L153.956 139.382C147.837 144.43 141.161 147.246 133.97 147.853C126.774 148.461 119.02 146.858 110.748 143C99.6456 137.821 91.2362 130.166 89.006 128.023C86.9041 125.834 79.2072 117.403 74.0078 106.258C70.1599 97.9857 68.5624 90.2316 69.1698 83.0348C69.7768 75.8434 72.5885 69.1679 77.6257 63.0501L77.6339 63.0401L77.6417 63.0297C77.6562 63.0106 77.6705 62.9914 77.6849 62.9724C77.7034 62.9476 77.7219 62.923 77.74 62.8987C77.7724 62.8554 77.8039 62.8133 77.8353 62.7717L77.8406 62.7646L77.8458 62.7573C78.0462 62.4747 80.2856 59.2367 81.6566 54.8183C83.0263 50.4046 83.5601 44.7036 80.1791 39.6147C78.8748 37.6469 76.1681 34.6223 72.835 31.1791C69.4899 27.7234 65.4774 23.8094 61.5308 20.0512C53.6368 12.534 45.9912 5.62594 44.4414 4.22692L44.4412 4.2268C44.1992 4.00849 43.9074 3.78908 43.6088 3.61547L43.6071 3.61447C39.1124 1.02092 28.3024 -1.27066 19.4516 8.46384L19.4501 8.46548C14.3793 14.0833 8.92611 25.1405 5.35156 38.5684C1.77262 52.013 0.0550169 67.9142 2.52369 83.2552C7.86936 116.498 30.5602 143.05 52.0301 164.583L52.0308 164.584L52.1387 164.692L52.5692 164.261L52.1388 164.692L52.2783 164.831L52.4178 164.971L52.5961 165.149H52.6192C74.1256 186.573 100.607 209.167 133.771 214.48C138.751 215.28 143.773 215.648 148.751 215.648C161.642 215.648 174.245 213.237 184.783 209.776C195.307 206.319 203.829 201.796 208.521 197.531L208.112 197.08L208.521 197.531C218.256 188.682 215.985 177.892 213.392 173.376L212.26 171.404ZM201.94 190.289L201.939 190.288C197.188 194.597 187.13 199.298 174.906 202.389C162.703 205.475 148.444 206.929 135.341 204.826C104.796 199.914 79.7108 178.347 59.1082 157.765C38.549 137.186 17.1099 112.167 12.22 81.7055L12.2199 81.705C10.1069 68.6023 11.5561 54.3431 14.6415 42.1403C17.7322 29.9165 22.4382 19.8588 26.7581 15.1083L26.759 15.1074C29.3322 12.2661 31.9226 11.3599 34.014 11.2175C36.0467 11.0791 37.6582 11.6598 38.3782 11.987C44.3215 17.3525 51.9018 24.3723 58.4167 30.684C61.687 33.8522 64.6855 36.8388 67.0725 39.3465C69.4713 41.8665 71.2195 43.8689 72.0187 45.0808L72.0189 45.081C73.3395 47.0813 73.0334 49.7798 72.2155 52.234C71.4252 54.6055 70.2169 56.5667 69.9044 57.0555C56.751 73.1673 57.6555 90.3472 62.7715 104.477C67.8706 118.561 77.1669 129.673 80.978 133.848C80.9844 133.857 80.9912 133.867 80.9985 133.877C81.0806 133.996 81.2229 134.202 81.404 134.362C81.4681 134.426 81.7125 134.669 82.0774 135.014C82.2614 135.208 82.4126 135.359 82.5183 135.465C82.5653 135.512 82.5994 135.546 82.6242 135.571L82.6347 135.592L82.7016 135.659C82.8004 135.757 82.9011 135.833 82.9767 135.889C83.0573 135.948 83.0992 135.976 83.1403 136.01C87.2678 139.779 98.3907 149.115 112.507 154.245C126.651 159.386 143.859 160.317 159.995 147.14C160.492 146.815 162.462 145.602 164.837 144.814C167.288 144.002 169.975 143.706 171.965 145.027C173.178 145.831 175.181 147.584 177.701 149.986C180.209 152.376 183.195 155.376 186.364 158.648C192.676 165.166 199.696 172.747 205.062 178.692C205.38 179.384 205.969 180.973 205.835 183C205.698 185.082 204.797 187.68 201.94 190.289Z" fill="#FFBB0D" stroke="#FFBB0D" stroke-width="1.21744"/>
</svg>
